<!DOCTYPE svg PUBLIC "-//W3C//DTD SVG 1.1//EN" "http://www.w3.org/Graphics/SVG/1.1/DTD/svg11.dtd">
<!-- Uploaded to: SVG Repo, www.svgrepo.com, Transformed by: SVG Repo Mixer Tools -->
<svg fill="#1f87dd" height="204px" width="204px" version="1.1" id="Layer_1" xmlns="http://www.w3.org/2000/svg" xmlns:xlink="http://www.w3.org/1999/xlink" viewBox="0 0 512.001 512.001" xml:space="preserve" stroke="#1f87dd">
<g id="SVGRepo_bgCarrier" stroke-width="0"/>
<g id="SVGRepo_tracerCarrier" stroke-linecap="round" stroke-linejoin="round"/>
<g id="SVGRepo_iconCarrier"> <g> <g> <path d="M503.359,451.18h-17.899v-79.826c0-4.542-3.499-8.502-8.038-8.638c-4.696-0.142-8.549,3.625-8.549,8.29v9.975 c-16.69-12.758-47.289-36.993-80.087-67.168c-61.449-56.532-103.69-109.063-122.655-152.417c-1.22-2.788-1.837-5.797-1.837-8.84 v-23.279l73.949-24.65c3.386-1.128,5.671-4.297,5.671-7.867s-2.285-6.739-5.671-7.868l-73.949-24.65V52.875 c0-4.542-3.499-8.502-8.038-8.638c-4.698-0.14-8.549,3.625-8.549,8.29v100.029c0,3.043-0.617,6.051-1.837,8.839 c-18.95,43.32-61.144,95.806-122.516,152.29c-32.826,30.211-63.503,54.511-80.226,67.294v-9.625c0-4.542-3.499-8.502-8.038-8.638 c-4.698-0.14-8.549,3.625-8.549,8.29v80.173H8.641c-4.542,0-8.502,3.499-8.638,8.038c-0.14,4.698,3.625,8.549,8.29,8.549h495.412 c4.666,0,8.431-3.852,8.29-8.549C511.86,454.679,507.9,451.18,503.359,451.18z M264.294,81.728l45.099,15.033l-45.099,15.033 V81.728z M79.62,451.18H43.128v-49.433c5.963-4.418,19.238-14.42,36.492-28.424V451.18z M247.707,451.18h-72.289 c16.434-22.31,49.01-69.556,72.289-122.643V451.18z M264.294,451.18V328.537c23.278,53.088,55.854,100.333,72.289,122.643H264.294 z M415.793,451.18h-58.425c-12.538-16.321-70.384-94.227-93.423-171.022h-0.001c-1.024-3.418-4.191-5.911-7.942-5.911 s-6.918,2.493-7.942,5.911h-0.001c-23.02,76.727-80.888,154.694-93.426,171.022H96.208v-91.562 c11.883-9.993,24.886-21.313,38.237-33.597c52.222-48.044,90.164-92.232,113.261-131.839v52.973c0,4.58,3.713,8.294,8.294,8.294 c4.58,0,8.294-3.713,8.294-8.294v-52.972c23.098,39.607,61.04,83.796,113.261,131.839c13.352,12.284,26.354,23.604,38.237,33.597 V451.18z M468.873,451.18h-36.492v-77.857c17.254,14.004,30.53,24.006,36.492,28.424V451.18z"/> </g> </g> </g>
</svg>